{"title":"[YIFY] Austin Powers 1 International Man of Mystery (1997)","uid":8333374,"size":1970117773,"categoryP":"video","categoryS":"hd___movies","magnet":"?xt=urn:btih:d62815d991996f64e6707167e77e64745455fd99&amp;dn=%5BYIFY%5D+Austin+Powers+1+International+Man+of+Mystery+%281997%29&amp;tr=udp%3A%2F%2Ftracker.openbittorrent.com%3A80&amp;tr=udp%3A%2F%2Fopen.demonii.com%3A1337&amp;tr=udp%3A%2F%2Ftracker.coppersurfer.tk%3A6969&amp;tr=udp%3A%2F%2Fexodus.desync.com%3A6969","seeders":1,"leechers":0,"uploader":null,"files":1,"time":1364926352,"description":"Video\n                                       \nFormat                                   : AVC\nFormat/Info                              : Advanced Video Codec\nFormat profile                           : &lt;a class=&quot;__cf_email__&quot; href=&quot;/cdn-cgi/l/email-protection&quot; data-cfemail=&quot;eba3828c83aba7dfc5db&quot;&gt;[email&amp;#160;protected]&lt;/a&gt;&lt;script cf-hash='f9e31' type=&quot;text/javascript&quot;&gt;\n/* &lt;![CDATA[ */!function(){try{var t=&quot;currentScript&quot;in document?document.currentScript:function(){for(var t=document.getElementsByTagName(&quot;script&quot;),e=t.length;e--;)if(t[e].getAttribute(&quot;cf-hash&quot;))return t[e]}();if(t&amp;&amp;t.previousSibling){var e,r,n,i,c=t.previousSibling,a=c.getAttribute(&quot;data-cfemail&quot;);if(a){for(e=&quot;&quot;,r=parseInt(a.substr(0,2),16),n=2;a.length-n;n+=2)i=parseInt(a.substr(n,2),16)^r,e+=String.fromCharCode(i);e=document.createTextNode(e),c.parentNode.replaceChild(e,c)}}}catch(u){}}();/* ]]&gt; */&lt;/script&gt;\nDuration                                 : 1h 29mn\nBit rate                                 : 2 292 Kbps\nWidth                                    : 1 920 pixels\nHeight                                   : 816 pixels\nDisplay aspect ratio                     : 2.35:1\nFrame rate                               : 23.976 fps\nStream size                              : 1.40 GiB (76%)\n\n\nAudio\n\nFormat                                   : AC-3\nFormat/Info                              : Audio Coding 3\nCodec ID                                 : A_AC3\nDuration                                 : 1h 29mn\nBit rate                                 : 640 Kbps\nChannel(s)                               : 6 channels\nStream size                              : 410 MiB (22%)\nLanguage                                 : English\n\n\nText\n\nFormat                                   : UTF-8\nCodec ID                                 : S_TEXT/UTF8\nCodec ID/Info                            : UTF-8 Plain Text\nLanguage                                 : English\nDefault                                  : Yes\n \nSources\n\nVideo: Austin Powers:International Man of Mystery(1997)1080p - YIFY\nAudio: BluRay Rip","torrent":{"xt":"urn:btih:d62815d991996f64e6707167e77e64745455fd99","amp;dn":"%5BYIFY%5D+Austin+Powers+1+International+Man+of+Mystery+%281997%29","amp;tr":["udp%3A%2F%2Ftracker.openbittorrent.com%3A80","udp%3A%2F%2Fopen.demonii.com%3A1337","udp%3A%2F%2Ftracker.coppersurfer.tk%3A6969","udp%3A%2F%2Fexodus.desync.com%3A6969"],"infoHash":"d62815d991996f64e6707167e77e64745455fd99","infoHashBuffer":{"type":"Buffer","data":[214,40,21,217,145,153,111,100,230,112,113,103,231,126,100,116,84,85,253,153]},"announce":[],"urlList":[]}}